<?xml version="1.0" standalone="no"?>
<svg xmlns:xlink="http://www.w3.org/1999/xlink" id="wave" style="transform:rotate(0deg); transition: 0.3s" viewBox="0 0 1440 210" version="1.1" xmlns="http://www.w3.org/2000/svg"><defs><linearGradient id="sw-gradient-0" x1="0" x2="0" y1="1" y2="0"><stop stop-color="rgba(246, 195, 150, 1)" offset="0%"/><stop stop-color="rgba(246, 195, 150, 1)" offset="100%"/></linearGradient></defs><path style="transform:translate(0, 0px); opacity:1" fill="url(#sw-gradient-0)" d="M0,84L120,77C240,70,480,56,720,52.5C960,49,1200,56,1440,77C1680,98,1920,133,2160,150.5C2400,168,2640,168,2880,154C3120,140,3360,112,3600,115.5C3840,119,4080,154,4320,140C4560,126,4800,63,5040,49C5280,35,5520,70,5760,87.5C6000,105,6240,105,6480,112C6720,119,6960,133,7200,122.5C7440,112,7680,77,7920,77C8160,77,8400,112,8640,122.5C8880,133,9120,119,9360,112C9600,105,9840,105,10080,87.5C10320,70,10560,35,10800,24.5C11040,14,11280,28,11520,49C11760,70,12000,98,12240,122.5C12480,147,12720,168,12960,175C13200,182,13440,175,13680,147C13920,119,14160,70,14400,49C14640,28,14880,35,15120,42C15360,49,15600,56,15840,80.5C16080,105,16320,147,16560,168C16800,189,17040,189,17160,189L17280,189L17280,210L17160,210C17040,210,16800,210,16560,210C16320,210,16080,210,15840,210C15600,210,15360,210,15120,210C14880,210,14640,210,14400,210C14160,210,13920,210,13680,210C13440,210,13200,210,12960,210C12720,210,12480,210,12240,210C12000,210,11760,210,11520,210C11280,210,11040,210,10800,210C10560,210,10320,210,10080,210C9840,210,9600,210,9360,210C9120,210,8880,210,8640,210C8400,210,8160,210,7920,210C7680,210,7440,210,7200,210C6960,210,6720,210,6480,210C6240,210,6000,210,5760,210C5520,210,5280,210,5040,210C4800,210,4560,210,4320,210C4080,210,3840,210,3600,210C3360,210,3120,210,2880,210C2640,210,2400,210,2160,210C1920,210,1680,210,1440,210C1200,210,960,210,720,210C480,210,240,210,120,210L0,210Z"/></svg>