<?xml version="1.0" standalone="no"?>
<svg xmlns:xlink="http://www.w3.org/1999/xlink" id="wave" style="transform:rotate(0deg); transition: 0.3s" viewBox="0 0 1440 140" version="1.1" xmlns="http://www.w3.org/2000/svg"><defs><linearGradient id="sw-gradient-0" x1="0" x2="0" y1="1" y2="0"><stop stop-color="rgba(250, 237, 226, 1)" offset="0%"/><stop stop-color="rgba(250, 237, 226, 1)" offset="100%"/></linearGradient></defs><path style="transform:translate(0, 0px); opacity:1" fill="url(#sw-gradient-0)" d="M0,84L30,70C60,56,120,28,180,18.7C240,9,300,19,360,30.3C420,42,480,56,540,65.3C600,75,660,79,720,88.7C780,98,840,112,900,102.7C960,93,1020,61,1080,53.7C1140,47,1200,65,1260,72.3C1320,79,1380,75,1440,79.3C1500,84,1560,98,1620,86.3C1680,75,1740,37,1800,28C1860,19,1920,37,1980,37.3C2040,37,2100,19,2160,14C2220,9,2280,19,2340,32.7C2400,47,2460,65,2520,60.7C2580,56,2640,28,2700,18.7C2760,9,2820,19,2880,25.7C2940,33,3000,37,3060,37.3C3120,37,3180,33,3240,35C3300,37,3360,47,3420,51.3C3480,56,3540,56,3600,51.3C3660,47,3720,37,3780,35C3840,33,3900,37,3960,35C4020,33,4080,23,4140,30.3C4200,37,4260,61,4290,72.3L4320,84L4320,140L4290,140C4260,140,4200,140,4140,140C4080,140,4020,140,3960,140C3900,140,3840,140,3780,140C3720,140,3660,140,3600,140C3540,140,3480,140,3420,140C3360,140,3300,140,3240,140C3180,140,3120,140,3060,140C3000,140,2940,140,2880,140C2820,140,2760,140,2700,140C2640,140,2580,140,2520,140C2460,140,2400,140,2340,140C2280,140,2220,140,2160,140C2100,140,2040,140,1980,140C1920,140,1860,140,1800,140C1740,140,1680,140,1620,140C1560,140,1500,140,1440,140C1380,140,1320,140,1260,140C1200,140,1140,140,1080,140C1020,140,960,140,900,140C840,140,780,140,720,140C660,140,600,140,540,140C480,140,420,140,360,140C300,140,240,140,180,140C120,140,60,140,30,140L0,140Z"/></svg>